# Original procedural demo bench, meters, CC0. Geometry-only test asset.
o demo_bench_seat
v -0.9 -0.25 0.42
v 0.9 -0.25 0.42
v 0.9 0.25 0.42
v -0.9 0.25 0.42
v -0.9 -0.25 0.50
v 0.9 -0.25 0.50
v 0.9 0.25 0.50
v -0.9 0.25 0.50
f 4 3 2 1
f 5 6 7 8
f 1 2 6 5
f 2 3 7 6
f 3 4 8 7
f 4 1 5 8
o left_support
v -0.75 -0.2 0
v -0.65 -0.2 0
v -0.65 0.2 0
v -0.75 0.2 0
v -0.75 -0.2 0.42
v -0.65 -0.2 0.42
v -0.65 0.2 0.42
v -0.75 0.2 0.42
f 12 11 10 9
f 13 14 15 16
f 9 10 14 13
f 10 11 15 14
f 11 12 16 15
f 12 9 13 16
o right_support
v 0.65 -0.2 0
v 0.75 -0.2 0
v 0.75 0.2 0
v 0.65 0.2 0
v 0.65 -0.2 0.42
v 0.75 -0.2 0.42
v 0.75 0.2 0.42
v 0.65 0.2 0.42
f 20 19 18 17
f 21 22 23 24
f 17 18 22 21
f 18 19 23 22
f 19 20 24 23
f 20 17 21 24
